<?xml version="1.0" encoding="UTF-8" standalone="no"?>
<!-- Created with Inkscape (http://www.inkscape.org/) -->

<svg
   width="97.093903mm"
   height="166.75783mm"
   viewBox="0 0 97.093903 166.75783"
   version="1.1"
   id="svg5"
   xmlns:inkscape="http://www.inkscape.org/namespaces/inkscape"
   xmlns:sodipodi="http://sodipodi.sourceforge.net/DTD/sodipodi-0.dtd"
   xmlns="http://www.w3.org/2000/svg"
   xmlns:svg="http://www.w3.org/2000/svg">
  <sodipodi:namedview
     id="namedview7"
     pagecolor="#ffffff"
     bordercolor="#000000"
     borderopacity="0.25"
     inkscape:showpageshadow="2"
     inkscape:pageopacity="0.0"
     inkscape:pagecheckerboard="0"
     inkscape:deskcolor="#d1d1d1"
     inkscape:document-units="mm"
     showgrid="false" />
  <defs
     id="defs2" />
  <g
     inkscape:label="Layer 1"
     inkscape:groupmode="layer"
     id="layer1"
     transform="translate(-60.705709,-61.466646)">
    <path
       id="path11047"
       style="fill:none;fill-opacity:0;stroke:#000000;stroke-width:1.05833;stroke-linecap:square;stroke-dasharray:none;stroke-opacity:1;paint-order:markers stroke fill"
       d="m 86.397086,160.19069 -7.078549,8.36834 m 0,-17.7284 7.078549,-8.36835 m -7.078549,-54.048233 7.078549,-8.36834 M 61.234875,226.77953 h 18.083662 l 7.078549,-8.36834 H 68.313421 m 0,-156.198788 -7.078546,8.368339 V 226.77953 l 7.078546,-8.36834 V 62.212402 m 88.957019,47.205808 q 0,10.38528 -3.19661,19.30194 -3.10527,8.81174 -8.76784,15.31566 -7.03253,8.07744 -16.62235,12.16861 -9.58983,3.98627 -24.20289,3.98627 H 86.397086 v 58.2205 H 68.313421 V 62.212403 H 105.2114 q 12.23844,0 20.73228,2.412741 8.49385,2.307839 15.06972,7.343127 7.76319,5.979402 11.96445,14.896056 4.29259,8.916654 4.29259,22.553883 z m -18.81432,0.52451 q 0,-8.07743 -2.46596,-14.056837 -2.46595,-5.979404 -7.48919,-9.755868 -4.38392,-3.251956 -10.04648,-4.61568 -5.57123,-1.468626 -14.1564,-1.468626 H 86.397086 v 62.416571 h 15.252384 q 10.95979,0 17.80967,-2.20294 6.84987,-2.30784 11.14246,-7.23821 4.29258,-5.03529 6.02789,-10.59509 1.82663,-5.5598 1.82663,-12.48332 z m 11.73577,7.84384 q 0,10.38527 -3.1966,19.30192 -3.10529,8.81176 -8.76784,15.31567 -7.03254,8.07743 -16.62237,12.16861 -9.58982,3.98627 -24.202874,3.98627 H 79.318539 v 58.2205 H 61.234874 V 70.580741 h 36.897981 q 12.238445,0 20.732285,2.412741 8.49384,2.307841 15.06972,7.343127 7.76319,5.979403 11.96444,14.896057 4.29259,8.916654 4.29259,22.553894 z m -18.81432,0.52451 q 0,-8.07745 -2.46595,-14.05685 -2.46596,-5.979402 -7.4892,-9.755867 -4.38392,-3.251956 -10.04647,-4.61568 -5.57123,-1.468625 -14.156413,-1.468625 H 79.318539 v 62.416582 h 15.252384 q 10.959797,0 17.809667,-2.20294 6.84988,-2.30784 11.14246,-7.23823 4.29259,-5.03529 6.02789,-10.59509 1.82663,-5.55978 1.82663,-12.4833 z" />
  </g>
</svg>
